<svg width="24" height="24" viewBox="0 0 24 24" fill="none" xmlns="http://www.w3.org/2000/svg">
<path fill-rule="evenodd" clip-rule="evenodd" d="M1 7C1 3.6863 3.6863 1 7 1H17C20.3137 1 23 3.68629 23 7V17C23 20.3137 20.3137 23 17 23H7C3.68629 23 1 20.3137 1 17V7ZM7 3C4.79086 3 3 4.79086 3 7V17C3 19.2091 4.79087 21 7 21H17C19.2091 21 21 19.2091 21 17V7C21 4.79087 19.2091 3 17 3H7Z" fill="white"/>
<path fill-rule="evenodd" clip-rule="evenodd" d="M10.6615 9.29367C11.2216 9.00306 11.8591 8.89643 12.4833 8.989ZM12.4833 8.989L12.63 7.99982ZM9.74033 7.51844C10.6738 7.03406 11.7363 6.85636 12.7767 7.01063C13.8378 7.16798 14.8202 7.66245 15.5787 8.42098C15.5787 8.421 15.5787 8.42102 15.5787 8.42103M15.5787 8.42103C16.3373 9.17959 16.8318 10.162 16.9892 11.2231L16.9892 11.2231C17.1434 12.2634 16.9657 13.3259 16.4813 14.2594C15.997 15.1929 15.2306 15.9499 14.2912 16.4227L14.2911 16.4228C13.3518 16.8955 12.2872 17.0601 11.2488 16.893C10.2105 16.726 9.25131 16.2357 8.5077 15.4921L8.50764 15.4921C7.76405 14.7484 7.2738 13.7893 7.10672 12.7509C6.93964 11.7125 7.10422 10.648 7.57704 9.70864M14.1645 9.8352C13.7094 9.38009 13.12 9.08341 12.4833 8.989L12.63 7.99982M9.74033 7.51844L9.74031 7.51845ZM10.6615 9.29368C10.1014 9.58431 9.64722 10.0441 9.36352 10.6078L9.36351 10.6078C9.07982 11.1714 8.98107 11.8101 9.08132 12.4331L9.08132 12.4332C9.18156 13.0562 9.47569 13.6316 9.92195 14.078C10.3681 14.5241 10.9437 14.8182 11.5665 14.9184L11.5666 14.9184C12.1896 15.0187 12.8284 14.9199 13.3921 14.6363C13.9557 14.3525 14.4155 13.8983 14.7061 13.3382C14.9967 12.7781 15.1034 12.1406 15.0108 11.5165C14.9164 10.8798 14.6197 10.2904 14.1645 9.83525L14.1645 9.8352M9.74031 7.51845C8.80687 8.00281 8.04988 8.76919 7.57705 9.70862Z" fill="white"/>
<path fill-rule="evenodd" clip-rule="evenodd" d="M16.5 6.5C16.5 5.94772 16.9477 5.5 17.5 5.5H17.51C18.0623 5.5 18.51 5.94772 18.51 6.5C18.51 7.05228 18.0623 7.5 17.51 7.5H17.5C16.9477 7.5 16.5 7.05228 16.5 6.5Z" fill="white"/>
</svg>
